<svg height="600" version="1.1" width="800" xmlns="http://www.w3.org/2000/svg" preserveAspectRatio="xMidYMid meet" viewBox="0 0 600 442" xmlns:xlink="http://www.w3.org/1999/xlink"><desc>Created with Snap</desc><defs/><g id="root" contentwidth="565.2" contentheight="403.70000000000005">
          <rect class="background" height="2000%" width="2000%" y="-1000%" x="-1000%" style="" fill="#ffffff"/>
          <g class="content" id="content" transform="matrix(1,0,0,1,53.2,234.7)">
            <g class="icon" style="mask: url(#mask);">
            <svg height="403.70000000000005" version="1.1" width="565.2" xmlns="http://www.w3.org/2000/svg" x="-35.80000000000004" y="-215.55"><desc>Created with Snap</desc><defs/><svg xmlns:xlink="http://www.w3.org/1999/xlink" version="1.1" xmlns="http://www.w3.org/2000/svg" viewBox="0 0 565.2 403.70000000000005"><defs/><g><path fill="#336699" stroke="none" paint-order="stroke fill markers" d=" M 272.6 145.05 L 292.6 145.05 L 292.6 95.05000000000001 L 272.6 95.05000000000001 M 147.55 145.05 L 167.55 145.05 L 167.55 135.05 L 147.55 135.05 M 417.65000000000003 145.05 L 397.65000000000003 145.05 L 397.65000000000003 55.05000000000001 L 417.65000000000003 55.05000000000001 M 272.6 258.65 L 292.6 258.65 L 292.6 308.65 L 272.6 308.65 M 147.55 258.65 L 167.55 258.65 L 167.55 348.65 L 147.55 348.65 M 417.65000000000003 258.65 L 397.65000000000003 258.65 L 397.65000000000003 268.65 L 417.65000000000003 268.65" style=""/></g><desc>Created with Snap</desc></svg></svg></g>
            <g id="icon_name_and_slogan_gap">
            </g>
            <g class="name_and_slogan" id="name_and_slogan_id">
              <g class="name"><g id="nameDefaultGroup"><path d="M21.2 -5.8L16.6 7.2L1.7 1.9L22.3 -55.5L41.8 -55.5L62.5 1.9L47.5 7.2L42.9 -5.8L21.2 -5.8M32.1 -36.7L25.4 -17.8L38.7 -17.8L32.1 -36.7M92.7 7.1L67.6 7.1L67.6 -19.4L78.1 -29.9L108.5 -29.9L108.5 17.6L98 28.1L69.1 28.1L69.1 24.8L70.6 23.8L70.6 16.2L92.7 16.2L92.7 7.1M83.4 -17.9L83.4 -4.9L92.7 -4.9L92.7 -17.9L83.4 -17.9M158.6 7.2L115.6 7.2L115.6 -6.1L126.1 -16.6L141.8 -16.6L141.8 -19.5L119.4 -19.5L119.4 -29.7L157.6 -29.7L157.6 -3L160.3 -3L158.6 7.2M130.6 -7.8L130.6 -3L141.8 -3L141.8 -7.8L130.6 -7.8M175 -17.8L167.3 -17.8L167.3 -29.7L175 -29.7L175 -44.8L190.9 -44.8L190.9 -29.7L205.6 -29.7L205.6 -17.8L190.9 -17.8L190.9 -4.8L204.3 -4.8L204.3 2.9L205.8 4L205.8 7.2L175 7.2L175 -17.8M255.7 7.2L212.5 7.1L212.5 -19.2L223.1 -29.7L254.6 -29.7L254.6 -16.4L244 -5.9L228.4 -5.9L228.4 -3L254.2 -3L254.2 2.9L255.7 4L255.7 7.2M228.4 -19.5L228.4 -16.1L239.5 -16.1L239.5 -19.5L228.4 -19.5M308.9 7.1L262 7.1L262 -44.9L272.6 -55.5L308.7 -55.5L308.7 -43.6L277.9 -43.6L277.9 -4.8L307.4 -4.8L307.4 2.8L308.9 4L308.9 7.1M332.3 7.2L316.4 7.2L316.4 -29.7L332.3 -29.7L332.3 -19.8L350 -29.7L357.4 -16.3L332.3 -2.3L332.3 7.2M404.8 7.2L361.7 7.2L361.7 -6.1L372.2 -16.6L387.9 -16.6L387.9 -19.5L365.6 -19.5L365.6 -29.7L403.8 -29.7L403.8 -3L406.5 -3L404.8 7.2M376.8 -7.8L376.8 -3L387.9 -3L387.9 -7.8L376.8 -7.8M436.1 7.2L420.3 7.2L420.3 -17.8L413.4 -17.8L413.4 -29.7L420.3 -29.7L420.3 -44.9L430.8 -55.4L449.9 -55.4L448.3 -43.5L436.1 -43.5L436.1 -29.7L448.3 -29.7L448.3 -17.8L436.1 -17.8L436.1 7.2M461.2 -17.8L453.4 -17.8L453.4 -29.7L461.2 -29.7L461.2 -44.8L477 -44.8L477 -29.7L491.7 -29.7L491.7 -17.8L477 -17.8L477 -4.8L490.4 -4.8L490.4 2.9L491.9 4L491.9 7.2L461.2 7.2L461.2 -17.8z" style="" fill="#336699" id="namepathdata"/></g></g>
              <g class="slogan"><g id="sloganDefaultGroup"/></g>
            </g>
            <g class="border">
            </g>
          </g>
          
          <defs id="defs">
            <mask xmlns="http://www.w3.org/2000/svg" id="mask">
                <rect id="showAll" fill="white" x="-35.80000000000004" y="-215.55" width="565.2" height="403.70000000000005"/>
                <rect id="hideNameBg" fill="black" x="0" y="0" width="0" height="0" stroke-width="2" stroke="black"/>
                <rect id="hideSloganBg" fill="black" x="0" y="0" width="0" height="0" stroke-width="2" stroke="black"/>
            <path d="M21.2 -5.8L16.6 7.2L1.7 1.9L22.3 -55.5L41.8 -55.5L62.5 1.9L47.5 7.2L42.9 -5.8L21.2 -5.8M32.1 -36.7L25.4 -17.8L38.7 -17.8L32.1 -36.7M92.7 7.1L67.6 7.1L67.6 -19.4L78.1 -29.9L108.5 -29.9L108.5 17.6L98 28.1L69.1 28.1L69.1 24.8L70.6 23.8L70.6 16.2L92.7 16.2L92.7 7.1M83.4 -17.9L83.4 -4.9L92.7 -4.9L92.7 -17.9L83.4 -17.9M158.6 7.2L115.6 7.2L115.6 -6.1L126.1 -16.6L141.8 -16.6L141.8 -19.5L119.4 -19.5L119.4 -29.7L157.6 -29.7L157.6 -3L160.3 -3L158.6 7.2M130.6 -7.8L130.6 -3L141.8 -3L141.8 -7.8L130.6 -7.8M175 -17.8L167.3 -17.8L167.3 -29.7L175 -29.7L175 -44.8L190.9 -44.8L190.9 -29.7L205.6 -29.7L205.6 -17.8L190.9 -17.8L190.9 -4.8L204.3 -4.8L204.3 2.9L205.8 4L205.8 7.2L175 7.2L175 -17.8M255.7 7.2L212.5 7.1L212.5 -19.2L223.1 -29.7L254.6 -29.7L254.6 -16.4L244 -5.9L228.4 -5.9L228.4 -3L254.2 -3L254.2 2.9L255.7 4L255.7 7.2M228.4 -19.5L228.4 -16.1L239.5 -16.1L239.5 -19.5L228.4 -19.5M308.9 7.1L262 7.1L262 -44.9L272.6 -55.5L308.7 -55.5L308.7 -43.6L277.9 -43.6L277.9 -4.8L307.4 -4.8L307.4 2.8L308.9 4L308.9 7.1M332.3 7.2L316.4 7.2L316.4 -29.7L332.3 -29.7L332.3 -19.8L350 -29.7L357.4 -16.3L332.3 -2.3L332.3 7.2M404.8 7.2L361.7 7.2L361.7 -6.1L372.2 -16.6L387.9 -16.6L387.9 -19.5L365.6 -19.5L365.6 -29.7L403.8 -29.7L403.8 -3L406.5 -3L404.8 7.2M376.8 -7.8L376.8 -3L387.9 -3L387.9 -7.8L376.8 -7.8M436.1 7.2L420.3 7.2L420.3 -17.8L413.4 -17.8L413.4 -29.7L420.3 -29.7L420.3 -44.9L430.8 -55.4L449.9 -55.4L448.3 -43.5L436.1 -43.5L436.1 -29.7L448.3 -29.7L448.3 -17.8L436.1 -17.8L436.1 7.2M461.2 -17.8L453.4 -17.8L453.4 -29.7L461.2 -29.7L461.2 -44.8L477 -44.8L477 -29.7L491.7 -29.7L491.7 -17.8L477 -17.8L477 -4.8L490.4 -4.8L490.4 2.9L491.9 4L491.9 7.2L461.2 7.2L461.2 -17.8z" style="stroke-width: 0;" fill="#000000" id="masknamepathdata" stroke="#000000" paint-order="stroke" transform="matrix(1,0,0,1,0,0)"/></mask>
          </defs>
          
        </g>
        </svg>